# xmcd
#
# Track frame offsets:
#	150
#	19644
#	37643
#	57419
#	74623
#	94368
#	110122
#	127357
#	149482
#	164249
#	190505
#	215816
#	238397
#	256721
#
# Disc length: 3727 seconds
#
# Revision: 10
# Processed by: cddbd v1.5.2PL0 Copyright (c) Steve Scherf et al.
# Submitted via: SynApp - FreeCDDB Version: 2.5
#
DISCID=df0e8d0e
DTITLE=Van Morrison - Down The Road
DYEAR=2002
DGENRE=Blues
TTITLE0=Down The Road
TTITLE1=Meet Me In The Indian Summer
TTITLE2=Steal My Heart Away
TTITLE3=Hey Mr. DJ
TTITLE4=Talk Is Cheap
TTITLE5=Choppin' Wood
TTITLE6=What Makes The Irish Heart Beat
TTITLE7=All Work And No Play
TTITLE8=Whatever Happened To PJ Proby?
TTITLE9=The Beauty Of The Days Gone By
TTITLE10=Georgia On My Mind
TTITLE11=Only A Dream
TTITLE12=Evening Shadows
TTITLE13=Fast Train
EXTD=589 661-2 YEAR: 2002
EXTT0=
EXTT1=
EXTT2=
EXTT3=
EXTT4=
EXTT5=
EXTT6=
EXTT7=
EXTT8=
EXTT9=
EXTT10=
EXTT11=
EXTT12=
EXTT13=
PLAYORDER=
